<svg viewBox="0 0 24 24" xmlns="http://www.w3.org/2000/svg" fill="currentColor">
  <path fill-rule="evenodd" clip-rule="evenodd"
    d="M3.25 6C3.25 4.48122 4.48122 3.25 6 3.25H8C9.51878 3.25 10.75 4.48122 10.75 6V10.5H13.25V8C13.25 6.48122 14.4812 5.25 16 5.25H18C19.5188 5.25 20.75 6.48122 20.75 8V10.5H21.75C22.1642 10.5 22.5 10.8358 22.5 11.25C22.5 11.6642 22.1642 12 21.75 12H20.75V16C20.75 17.5188 19.5188 18.75 18 18.75H16C14.4812 18.75 13.25 17.5188 13.25 16V12H10.75V18C10.75 19.5188 9.51878 20.75 8 20.75H6C4.48122 20.75 3.25 19.5188 3.25 18V12H2.25C1.83579 12 1.5 11.6642 1.5 11.25C1.5 10.8358 1.83579 10.5 2.25 10.5H3.25V6ZM4.75 11.25V18C4.75 18.6904 5.30964 19.25 6 19.25H8C8.69036 19.25 9.25 18.6904 9.25 18V11.25V6C9.25 5.30964 8.69036 4.75 8 4.75H6C5.30964 4.75 4.75 5.30964 4.75 6V11.25ZM14.75 11.25V16C14.75 16.6904 15.3096 17.25 16 17.25H18C18.6904 17.25 19.25 16.6904 19.25 16V11.25V8C19.25 7.30964 18.6904 6.75 18 6.75H16C15.3096 6.75 14.75 7.30964 14.75 8V11.25Z" />
</svg>
