<svg viewBox="0 0 24 24" xmlns="http://www.w3.org/2000/svg" fill="currentColor">
  <path d="M4.83884 2.55106C4.8386 2.34759 4.70185 2.1696 4.50531 2.11694C4.30877 2.06427 4.10135 2.15004 3.9994 2.32613L3.8807 2.53116C3.65493 2.92111 3.23868 3.16143 2.78809 3.16198L2.55118 3.16226C2.34771 3.16251 2.16972 3.29926 2.11706 3.4958C2.0644 3.69233 2.15017 3.89976 2.32625 4.0017L2.53128 4.12041C2.92123 4.34618 3.16155 4.76242 3.1621 5.21302L3.16239 5.44993C3.16263 5.6534 3.29938 5.83139 3.49592 5.88405C3.69245 5.93671 3.89988 5.85094 4.00182 5.67486L4.12053 5.46983C4.3463 5.07988 4.76254 4.83956 5.21313 4.83901L5.45005 4.83872C5.65352 4.83848 5.83151 4.70173 5.88417 4.50519C5.93683 4.30865 5.85106 4.10123 5.67497 3.99928L5.46995 3.88058C5.07999 3.65481 4.83968 3.23856 4.83913 2.78797L4.83884 2.55106Z" />
  <path fill-rule="evenodd" clip-rule="evenodd" d="M8.5006 2.25045C8.08639 2.25045 7.7506 2.58624 7.7506 3.00045C7.7506 3.41467 8.08639 3.75046 8.5006 3.75046H18.0006C19.2432 3.75046 20.2506 4.75782 20.2506 6.00046V13.1898L17.9451 10.8843C16.8712 9.8104 15.13 9.81041 14.0561 10.8843L10.2203 14.7201C9.82281 15.1176 9.17839 15.1176 8.78093 14.7201C7.79768 13.7369 6.20352 13.7369 5.22027 14.7201L3.7506 16.1898V9.00046C3.7506 8.58625 3.41481 8.25046 3.0006 8.25046C2.58639 8.25046 2.2506 8.58625 2.2506 9.00046V18.0005C2.2506 20.0715 3.92953 21.7505 6.0006 21.7505H18.0006C20.0717 21.7505 21.7506 20.0715 21.7506 18.0005V6.00046C21.7506 3.92939 20.0717 2.25045 18.0006 2.25045H8.5006ZM20.2506 15.3111L16.8845 11.945C16.3963 11.4569 15.6049 11.4569 15.1167 11.945L11.2809 15.7808C10.2977 16.764 8.70352 16.7641 7.72027 15.7808C7.32281 15.3833 6.67839 15.3833 6.28093 15.7808L3.76936 18.2924C3.91247 19.3971 4.85688 20.2505 6.0006 20.2505H18.0006C19.2432 20.2505 20.2506 19.2431 20.2506 18.0005V15.3111Z" />
  <path d="M9.27706 5.60267C9.53911 5.67289 9.72144 5.91021 9.72177 6.1815L9.72223 6.56057C9.72315 7.32428 10.1305 8.02978 10.7914 8.41244L11.1195 8.60237C11.3542 8.7383 11.4686 9.01486 11.3984 9.27691C11.3282 9.53896 11.0908 9.72129 10.8196 9.72162L10.4405 9.72208C9.67677 9.72301 8.97127 10.1303 8.58862 10.7913L8.39869 11.1193C8.26276 11.3541 7.98619 11.4685 7.72414 11.3982C7.4621 11.328 7.27977 11.0907 7.27944 10.8194L7.27898 10.4403C7.27805 9.67663 6.87073 8.97113 6.2098 8.58847L5.88175 8.39854C5.64697 8.26261 5.53261 7.98605 5.60282 7.724C5.67304 7.46195 5.91036 7.27962 6.18165 7.27929L6.56072 7.27883C7.32443 7.2779 8.02993 6.87058 8.41259 6.20965L8.60252 5.8816C8.73845 5.64682 9.01501 5.53246 9.27706 5.60267Z"/>
  </svg>
