<svg viewBox="0 0 31 31" fill="none" xmlns="http://www.w3.org/2000/svg">
  <path d="M28.3146 12.4709C28.5636 11.7238 28.7007 10.9773 28.7007 10.1056C28.7007 8.86038 28.3394 7.49059 27.667 6.36985C26.2971 4.00385 23.7818 2.63407 21.0421 2.63407C20.5066 2.63407 19.9711 2.63358 19.448 2.75811C18.7382 2.01095 17.8664 1.38832 16.8951 0.89021C15.9237 0.516631 14.8652 0.267578 13.7942 0.267578H13.7568H13.7319C10.4193 0.267578 7.49272 2.38477 6.47156 5.49793C5.41303 5.74698 4.42942 6.12056 3.5577 6.74319C2.68597 7.36582 1.96373 8.11225 1.42825 9.10846C0.755772 10.2292 0.394531 11.599 0.394531 12.8443C0.394531 14.7121 1.09201 16.5808 2.36224 17.9506C2.11317 18.6977 1.97611 19.4441 1.97611 20.3158C1.97611 21.5611 2.33736 22.9309 3.00983 24.0516C3.81929 25.4214 5.05194 26.5422 6.52142 27.1648C8.00335 27.7874 9.64722 28.037 11.2288 27.6634C11.9386 28.4105 12.8104 29.0332 13.7817 29.5313C14.7531 29.9048 15.8116 30.1539 16.8826 30.1539H16.92H16.9449C20.2575 30.1539 23.1841 28.0367 24.2052 24.9236C25.2638 24.6745 26.2598 24.3009 27.1316 23.6783C27.9908 23.0557 28.7255 22.3092 29.2486 21.313C29.921 20.1923 30.2823 18.8225 30.2823 17.5772C30.2823 15.7093 29.5848 13.8407 28.3146 12.4709ZM16.9324 28.162H16.92C15.5875 28.162 14.3049 27.7884 13.2962 26.9167C13.3585 26.9167 13.4081 26.7914 13.4704 26.7914L19.4979 23.305C19.6598 23.305 19.7841 23.1802 19.8712 23.0557C19.9584 22.8066 19.9959 22.6828 19.9959 22.5583V14.0895L22.5489 15.5841C22.5613 15.5841 22.5738 15.5841 22.5863 15.5841C22.5863 15.5841 22.5987 15.5848 22.5987 15.7093V22.5583C22.5987 25.6714 20.0582 28.162 16.9324 28.162ZM4.72823 23.0557C4.2301 22.184 3.96875 21.1875 3.96875 20.3158C3.96875 19.9423 3.99344 19.5689 4.05571 19.3199C4.09307 19.3199 4.18041 19.3206 4.23022 19.4451L10.2574 22.8064C10.4193 22.9309 10.5814 22.9316 10.7557 22.9316C10.93 22.9316 11.1043 22.9309 11.2537 22.8064L18.6135 18.6972V21.5611C18.601 21.5611 18.5888 21.6864 18.5764 21.6864L12.4866 25.0488C11.6273 25.5469 10.6434 25.9195 9.64719 25.9195C8.65093 25.9195 7.66709 25.5469 6.80782 25.0488C5.94855 24.6752 5.22636 23.9273 4.72823 23.0557ZM3.14665 10.1056C3.80667 8.98491 4.85288 8.11322 6.09821 7.61512C6.09821 7.61512 6.09821 7.73867 6.09821 7.8632V14.7121C6.09821 14.8367 6.13538 15.0862 6.22255 15.2107C6.30973 15.3353 6.43432 15.4595 6.59621 15.5841L13.956 19.6932L11.4033 21.1878C11.3908 21.1878 11.3783 21.1878 11.3659 21.1878C11.3534 21.1878 11.3285 21.1878 11.316 21.1878L5.22624 17.7013C4.35451 17.2032 3.64477 16.4565 3.14665 15.7093C2.64852 14.8376 2.38717 13.8405 2.38717 12.8443C2.38717 11.848 2.64852 10.9773 3.14665 10.1056ZM24.0931 14.8374L16.7208 10.7283L19.2735 9.23372C19.286 9.23372 19.2985 9.23372 19.3109 9.23372C19.3358 9.23372 19.3483 9.23372 19.3608 9.23372L25.4627 12.7202C26.322 13.2183 27.032 13.8405 27.5302 14.7121C28.0283 15.5838 28.2896 16.581 28.2896 17.5772C28.2896 19.9432 26.8077 21.9347 24.5786 22.8064V15.7093C24.5786 15.5848 24.529 15.3353 24.4542 15.2107C24.3671 15.0862 24.2425 14.9619 24.0931 14.8374ZM26.6211 11.1016C26.5713 11.1016 26.5088 11.1009 26.4466 10.9764L20.4194 7.61512C20.27 7.49059 20.0954 7.48986 19.9211 7.48986C19.7468 7.48986 19.5725 7.49059 19.4231 7.61512L12.0633 11.7242V8.86038C12.0633 8.86038 12.0755 8.85965 12.1004 8.73513L18.1902 5.37267C19.062 4.87457 20.0333 4.50196 21.0296 4.50196C24.1678 4.50196 26.708 7.11701 26.708 10.1056C26.708 10.4792 26.6834 10.8526 26.6211 11.1016ZM10.6809 16.332L8.12793 14.8374C8.11548 14.8374 8.10299 14.8374 8.09054 14.8374C8.07808 14.8374 8.07807 14.8367 8.07807 14.7121V7.8632C8.07807 4.75004 10.6186 2.25951 13.7568 2.25951C15.0769 2.25951 16.3594 2.63309 17.3806 3.50478C17.3432 3.50478 17.2562 3.63003 17.2064 3.63003L11.1789 7.11653C11.0295 7.11653 10.9052 7.2413 10.818 7.36582C10.7309 7.61488 10.6809 7.73867 10.6809 7.8632V16.332ZM12.0633 13.3428L15.3384 11.4749L18.6135 13.3428V17.0786L15.3384 18.9465L12.0633 17.0786V13.3428Z" fill="currentColor"/>
</svg>
