<svg xmlns="http://www.w3.org/2000/svg" viewBox="0 0 24 24" fill="none">
  <path fill-rule="evenodd" clip-rule="evenodd" d="M6 2.25C3.92893 2.25 2.25 3.92893 2.25 6V9C2.25 9.41421 2.58579 9.75 3 9.75C3.41421 9.75 3.75 9.41421 3.75 9V6C3.75 4.75736 4.75736 3.75 6 3.75H9C9.41421 3.75 9.75 3.41421 9.75 3C9.75 2.58579 9.41421 2.25 9 2.25H6ZM20.75 10C20.3358 10 20 9.66421 20 9.25V5.06066L15.7803 9.28033C15.4874 9.57322 15.0126 9.57322 14.7197 9.28033C14.4268 8.98744 14.4268 8.51256 14.7197 8.21967L18.9393 4L14.75 4C14.3358 4 14 3.66421 14 3.25C14 2.83579 14.3358 2.5 14.75 2.5L19.75 2.5C20.7165 2.5 21.5 3.2835 21.5 4.25V9.25C21.5 9.66421 21.1642 10 20.75 10ZM4 14.75C4 14.3358 3.66421 14 3.25 14C2.83579 14 2.5 14.3358 2.5 14.75V19.75C2.5 20.7165 3.2835 21.5 4.25 21.5H9.25C9.66421 21.5 10 21.1642 10 20.75C10 20.3358 9.66421 20 9.25 20H5.06066L9.28033 15.7803C9.57322 15.4874 9.57322 15.0126 9.28033 14.7197C8.98744 14.4268 8.51256 14.4268 8.21967 14.7197L4 18.9393V14.75ZM21.75 15C21.75 14.5858 21.4142 14.25 21 14.25C20.5858 14.25 20.25 14.5858 20.25 15V18C20.25 19.2426 19.2426 20.25 18 20.25H15C14.5858 20.25 14.25 20.5858 14.25 21C14.25 21.4142 14.5858 21.75 15 21.75H18C20.0711 21.75 21.75 20.0711 21.75 18V15Z" fill="currentColor"/>
</svg>
